<mxfile host="app.diagrams.net" agent="Mozilla/5.0 (Windows NT 10.0; Win64; x64) AppleWebKit/537.36 (KHTML, like Gecko) Chrome/112.0.0.0 Safari/537.36" version="24.7.6">
  <diagram name="第 1 页" id="DpvwVF0BHigdL-rOC4HJ">
    <mxGraphModel dx="989" dy="527" grid="1" gridSize="10" guides="1" tooltips="1" connect="1" arrows="1" fold="1" page="1" pageScale="1" pageWidth="827" pageHeight="1169" math="0" shadow="0">
      <root>
        <mxCell id="0" />
        <mxCell id="1" parent="0" />
        <mxCell id="Uxwp7VMzm1LvapmY-Hm1-1" value="det_period(&lt;font style=&quot;font-size: 16px;&quot;&gt;可配&lt;/font&gt;)" style="rounded=0;whiteSpace=wrap;html=1;fontSize=18;" vertex="1" parent="1">
          <mxGeometry x="800" y="340" width="140" height="30" as="geometry" />
        </mxCell>
        <mxCell id="Uxwp7VMzm1LvapmY-Hm1-2" value="pd_to_run(16)" style="rounded=0;whiteSpace=wrap;html=1;fontSize=14;fontStyle=0" vertex="1" parent="1">
          <mxGeometry x="120" y="340" width="120" height="30" as="geometry" />
        </mxCell>
        <mxCell id="Uxwp7VMzm1LvapmY-Hm1-4" value="convert(29/45)" style="rounded=0;whiteSpace=wrap;html=1;fontSize=15;" vertex="1" parent="1">
          <mxGeometry x="240" y="340" width="140" height="30" as="geometry" />
        </mxCell>
        <mxCell id="Uxwp7VMzm1LvapmY-Hm1-5" value="mon_period(&lt;font style=&quot;font-size: 13px;&quot;&gt;可配&lt;/font&gt;)" style="rounded=0;whiteSpace=wrap;html=1;fontSize=15;" vertex="1" parent="1">
          <mxGeometry x="380" y="340" width="120" height="30" as="geometry" />
        </mxCell>
        <mxCell id="Uxwp7VMzm1LvapmY-Hm1-6" value="" style="shape=curlyBracket;whiteSpace=wrap;html=1;rounded=1;labelPosition=left;verticalLabelPosition=middle;align=right;verticalAlign=middle;direction=north;" vertex="1" parent="1">
          <mxGeometry x="120" y="370" width="260" height="20" as="geometry" />
        </mxCell>
        <mxCell id="Uxwp7VMzm1LvapmY-Hm1-7" value="sensor" style="ellipse;whiteSpace=wrap;html=1;" vertex="1" parent="1">
          <mxGeometry x="220" y="390" width="60" height="20" as="geometry" />
        </mxCell>
        <mxCell id="Uxwp7VMzm1LvapmY-Hm1-8" value="pd_to_run(16)" style="rounded=0;whiteSpace=wrap;html=1;fontSize=14;fontStyle=0" vertex="1" parent="1">
          <mxGeometry x="540" y="340" width="120" height="30" as="geometry" />
        </mxCell>
        <mxCell id="Uxwp7VMzm1LvapmY-Hm1-9" value="convert(29/45)" style="rounded=0;whiteSpace=wrap;html=1;fontSize=15;" vertex="1" parent="1">
          <mxGeometry x="660" y="340" width="140" height="30" as="geometry" />
        </mxCell>
        <mxCell id="Uxwp7VMzm1LvapmY-Hm1-10" value="sensor" style="ellipse;whiteSpace=wrap;html=1;" vertex="1" parent="1">
          <mxGeometry x="640" y="390" width="60" height="20" as="geometry" />
        </mxCell>
        <mxCell id="Uxwp7VMzm1LvapmY-Hm1-11" value="........." style="text;html=1;align=center;verticalAlign=middle;whiteSpace=wrap;rounded=0;fontStyle=1;fontSize=15;" vertex="1" parent="1">
          <mxGeometry x="490" y="340" width="60" height="30" as="geometry" />
        </mxCell>
        <mxCell id="Uxwp7VMzm1LvapmY-Hm1-12" value="" style="shape=curlyBracket;whiteSpace=wrap;html=1;rounded=1;labelPosition=left;verticalLabelPosition=middle;align=right;verticalAlign=middle;direction=north;" vertex="1" parent="1">
          <mxGeometry x="540" y="370" width="260" height="20" as="geometry" />
        </mxCell>
        <mxCell id="Uxwp7VMzm1LvapmY-Hm1-13" value="" style="shape=curlyBracket;whiteSpace=wrap;html=1;rounded=1;labelPosition=left;verticalLabelPosition=middle;align=right;verticalAlign=middle;direction=south;" vertex="1" parent="1">
          <mxGeometry x="120" y="310" width="820" height="30" as="geometry" />
        </mxCell>
        <mxCell id="Uxwp7VMzm1LvapmY-Hm1-14" value="thermal ctl&amp;nbsp;一轮" style="rounded=1;whiteSpace=wrap;html=1;fontSize=15;fontStyle=1" vertex="1" parent="1">
          <mxGeometry x="470" y="290" width="120" height="20" as="geometry" />
        </mxCell>
        <mxCell id="Uxwp7VMzm1LvapmY-Hm1-15" value="现在时钟是32k,一个cycle是30.5us，mon_period配置是16个cycle，每个sensor采10次，取平均，N5是8个sensor，det_period是64ms；所以温度更新一次的时间是：((16+45)*10 + 16*(10-1))*8*30.5 = &lt;b&gt;184ms&lt;/b&gt;；再加上det_period的64ms，也就是说采样间隔超过&lt;b&gt;250ms&lt;/b&gt;才会真正的更新温度" style="text;html=1;align=left;verticalAlign=middle;whiteSpace=wrap;rounded=0;" vertex="1" parent="1">
          <mxGeometry x="160" y="440" width="780" height="30" as="geometry" />
        </mxCell>
      </root>
    </mxGraphModel>
  </diagram>
</mxfile>
